<svg xmlns="http://www.w3.org/2000/svg" xmlns:xlink="http://www.w3.org/1999/xlink" width="512" zoomAndPan="magnify" viewBox="0 0 384 383.999986" height="512" preserveAspectRatio="xMidYMid meet" version="1.0"><defs><clipPath id="f37cbdf5e1"><path d="M 109 5.65625 L 147 5.65625 L 147 51 L 109 51 Z M 109 5.65625 " clip-rule="nonzero"/></clipPath></defs><path fill="#2b6777" d="M 218.363281 319.105469 C 229.683594 298.308594 229.683594 273.195312 218.363281 252.402344 C 208.308594 233.894531 196.953125 202.515625 220.535156 182.40625 C 255.6875 152.457031 349.625 178.632812 338.183594 228.433594 C 322.011719 298.863281 321.882812 349.269531 275.113281 374.539062 C 258.914062 383.605469 238.945312 382.558594 223.785156 371.851562 C 211.605469 362.921875 202.503906 347.320312 217.5 320.878906 Z M 218.363281 319.105469 " fill-opacity="1" fill-rule="nonzero"/><path fill="#2b6777" d="M 198.730469 121.816406 C 186.417969 125.324219 179.875 140.105469 184.078125 154.796875 C 188.285156 169.488281 201.417969 178.589844 213.945312 175.082031 C 226.472656 171.570312 232.757812 156.835938 228.554688 142.097656 C 224.351562 127.359375 211.171875 118.347656 198.730469 121.816406 Z M 198.730469 121.816406 " fill-opacity="1" fill-rule="nonzero"/><path fill="#2b6777" d="M 251.226562 113.882812 C 241.082031 114.183594 233.148438 124.371094 233.539062 136.550781 C 233.929688 148.726562 242.554688 158.222656 252.699219 157.964844 C 262.84375 157.699219 270.777344 147.472656 270.382812 135.292969 C 269.996094 123.113281 261.410156 113.535156 251.226562 113.882812 Z M 251.226562 113.882812 " fill-opacity="1" fill-rule="nonzero"/><path fill="#2b6777" d="M 290.542969 124.980469 C 282.132812 124.632812 275.023438 132.519531 274.636719 142.3125 C 274.242188 152.109375 280.703125 160.777344 289.113281 161.082031 C 297.523438 161.386719 304.589844 153.539062 304.980469 143.527344 C 305.367188 133.515625 298.910156 125.28125 290.542969 124.980469 Z M 290.542969 124.980469 " fill-opacity="1" fill-rule="nonzero"/><path fill="#2b6777" d="M 321.144531 142.53125 C 312.667969 140.621094 304.246094 145.949219 302.335938 154.425781 C 300.425781 162.898438 305.757812 171.320312 314.234375 173.226562 C 322.714844 175.136719 331.128906 169.8125 333.039062 161.335938 C 333.253906 160.398438 333.378906 159.441406 333.414062 158.480469 C 334.339844 150.714844 328.890625 143.632812 321.144531 142.53125 Z M 321.144531 142.53125 " fill-opacity="1" fill-rule="nonzero"/><path fill="#2b6777" d="M 347.15625 165.066406 C 339.75 162.53125 331.691406 166.480469 329.15625 173.886719 C 326.617188 181.289062 330.566406 189.351562 337.972656 191.886719 C 345.378906 194.417969 353.4375 190.476562 355.972656 183.070312 C 356.269531 182.203125 356.484375 181.316406 356.605469 180.414062 C 358.085938 173.589844 353.914062 166.816406 347.15625 165.066406 Z M 347.15625 165.066406 " fill-opacity="1" fill-rule="nonzero"/><path fill="#2b6777" d="M 161.75 211.398438 C 150.4375 190.625 150.4375 165.519531 161.75 144.742188 C 171.8125 126.238281 183.167969 94.8125 159.585938 74.742188 C 124.429688 44.796875 30.496094 70.933594 41.9375 120.734375 C 58.238281 191.160156 58.367188 241.566406 105.136719 267.097656 C 121.34375 276.152344 141.3125 275.089844 156.464844 264.363281 C 168.648438 255.695312 177.746094 239.832031 162.75 213.394531 C 162.402344 212.570312 162.058594 212.007812 161.75 211.398438 Z M 161.75 211.398438 " fill-opacity="1" fill-rule="nonzero"/><path fill="#2b6777" d="M 181.390625 13.980469 C 193.699219 17.492188 200.246094 32.226562 196.042969 46.960938 C 191.835938 61.703125 178.703125 70.714844 166.171875 67.203125 C 153.648438 63.695312 147.359375 48.957031 151.566406 34.261719 C 155.769531 19.570312 168.949219 10.472656 181.390625 13.980469 Z M 181.390625 13.980469 " fill-opacity="1" fill-rule="nonzero"/><g clip-path="url(#f37cbdf5e1)"><path fill="#2b6777" d="M 128.894531 6.003906 C 139.039062 6.351562 146.972656 16.492188 146.582031 28.675781 C 146.191406 40.851562 137.5625 50.34375 127.421875 50.125 C 117.277344 49.910156 109.347656 39.636719 109.734375 27.460938 C 110.125 15.28125 118.710938 5.660156 128.894531 6.003906 Z M 128.894531 6.003906 " fill-opacity="1" fill-rule="nonzero"/></g><path fill="#2b6777" d="M 105.484375 34.617188 C 105.886719 44.660156 99.429688 53.070312 91.058594 53.40625 C 82.683594 53.742188 75.570312 45.871094 75.171875 35.828125 C 74.769531 25.785156 81.230469 17.375 89.601562 17.039062 C 97.96875 16.703125 105.082031 24.574219 105.484375 34.617188 Z M 105.484375 34.617188 " fill-opacity="1" fill-rule="nonzero"/><path fill="#2b6777" d="M 58.972656 34.695312 C 66.8125 35.121094 72.84375 41.769531 72.5 49.609375 C 73.445312 57.457031 67.859375 64.585938 60.015625 65.558594 C 52.199219 65.070312 46.210938 58.425781 46.535156 50.605469 C 45.589844 42.78125 51.152344 35.667969 58.972656 34.695312 Z M 58.972656 34.695312 " fill-opacity="1" fill-rule="nonzero"/><path fill="#2b6777" d="M 32.964844 57.191406 C 40.789062 57.355469 47.003906 63.832031 46.839844 71.65625 C 46.71875 77.589844 42.910156 82.816406 37.296875 84.757812 C 30.257812 85.082031 24.242188 79.738281 23.730469 72.707031 C 22.128906 65.894531 26.214844 59.035156 32.964844 57.191406 Z M 32.964844 57.191406 " fill-opacity="1" fill-rule="nonzero"/></svg>