<svg xmlns="http://www.w3.org/2000/svg" xmlns:xlink="http://www.w3.org/1999/xlink" width="512" zoomAndPan="magnify" viewBox="0 0 384 172.499995" height="230" preserveAspectRatio="xMidYMid meet" version="1.0"><defs><g/><clipPath id="c74917c5b7"><path d="M 41 8.648438 L 58 8.648438 L 58 28 L 41 28 Z M 41 8.648438 " clip-rule="nonzero"/></clipPath><clipPath id="c12bc56375"><path d="M 4.292969 30 L 15 30 L 15 43 L 4.292969 43 Z M 4.292969 30 " clip-rule="nonzero"/></clipPath></defs><path fill="#2b6777" d="M 87.730469 141.976562 C 92.542969 133.132812 92.542969 122.449219 87.730469 113.605469 C 83.453125 105.730469 78.628906 92.382812 88.652344 83.828125 C 103.597656 71.089844 143.53125 82.222656 138.664062 103.410156 C 131.789062 133.367188 131.734375 154.8125 111.851562 165.558594 C 104.96875 169.417969 96.480469 168.972656 90.035156 164.414062 C 84.855469 160.617188 80.988281 153.980469 87.363281 142.734375 Z M 87.730469 141.976562 " fill-opacity="1" fill-rule="nonzero"/><path fill="#2b6777" d="M 79.382812 58.054688 C 74.148438 59.546875 71.367188 65.835938 73.15625 72.085938 C 74.941406 78.335938 80.523438 82.207031 85.851562 80.710938 C 91.175781 79.21875 93.847656 72.953125 92.0625 66.683594 C 90.273438 60.414062 84.671875 56.578125 79.382812 58.054688 Z M 79.382812 58.054688 " fill-opacity="1" fill-rule="nonzero"/><path fill="#2b6777" d="M 101.699219 54.679688 C 97.386719 54.808594 94.015625 59.140625 94.179688 64.324219 C 94.347656 69.503906 98.011719 73.542969 102.324219 73.429688 C 106.636719 73.320312 110.011719 68.96875 109.84375 63.789062 C 109.679688 58.609375 106.027344 54.53125 101.699219 54.679688 Z M 101.699219 54.679688 " fill-opacity="1" fill-rule="nonzero"/><path fill="#2b6777" d="M 118.414062 59.398438 C 114.839844 59.253906 111.816406 62.605469 111.652344 66.773438 C 111.484375 70.941406 114.230469 74.628906 117.804688 74.757812 C 121.378906 74.886719 124.386719 71.550781 124.550781 67.292969 C 124.714844 63.03125 121.96875 59.527344 118.414062 59.398438 Z M 118.414062 59.398438 " fill-opacity="1" fill-rule="nonzero"/><path fill="#2b6777" d="M 131.421875 66.867188 C 127.820312 66.054688 124.238281 68.320312 123.425781 71.925781 C 122.613281 75.53125 124.878906 79.113281 128.484375 79.925781 C 132.089844 80.738281 135.667969 78.472656 136.480469 74.867188 C 136.570312 74.46875 136.625 74.058594 136.636719 73.652344 C 137.03125 70.347656 134.714844 67.335938 131.421875 66.867188 Z M 131.421875 66.867188 " fill-opacity="1" fill-rule="nonzero"/><path fill="#2b6777" d="M 142.480469 76.453125 C 139.332031 75.375 135.90625 77.054688 134.828125 80.207031 C 133.75 83.355469 135.425781 86.78125 138.574219 87.859375 C 141.722656 88.9375 145.152344 87.261719 146.226562 84.109375 C 146.355469 83.742188 146.445312 83.367188 146.496094 82.980469 C 147.125 80.078125 145.351562 77.199219 142.480469 76.453125 Z M 142.480469 76.453125 " fill-opacity="1" fill-rule="nonzero"/><path fill="#2b6777" d="M 63.664062 96.164062 C 58.851562 87.324219 58.851562 76.644531 63.664062 67.808594 C 67.941406 59.933594 72.765625 46.566406 62.742188 38.03125 C 47.796875 25.292969 7.863281 36.410156 12.730469 57.59375 C 19.660156 87.554688 19.714844 108.996094 39.597656 119.855469 C 46.484375 123.707031 54.972656 123.253906 61.414062 118.691406 C 66.59375 115.003906 70.460938 108.257812 64.085938 97.011719 C 63.941406 96.660156 63.792969 96.421875 63.664062 96.164062 Z M 63.664062 96.164062 " fill-opacity="1" fill-rule="nonzero"/><path fill="#2b6777" d="M 72.011719 12.183594 C 77.246094 13.675781 80.027344 19.945312 78.238281 26.214844 C 76.453125 32.484375 70.871094 36.316406 65.542969 34.824219 C 60.21875 33.332031 57.546875 27.0625 59.332031 20.8125 C 61.121094 14.558594 66.722656 10.691406 72.011719 12.183594 Z M 72.011719 12.183594 " fill-opacity="1" fill-rule="nonzero"/><g clip-path="url(#c74917c5b7)"><path fill="#2b6777" d="M 49.695312 8.789062 C 54.007812 8.9375 57.378906 13.253906 57.214844 18.433594 C 57.046875 23.613281 53.378906 27.652344 49.070312 27.558594 C 44.757812 27.464844 41.386719 23.097656 41.550781 17.917969 C 41.714844 12.738281 45.367188 8.644531 49.695312 8.789062 Z M 49.695312 8.789062 " fill-opacity="1" fill-rule="nonzero"/></g><path fill="#2b6777" d="M 39.742188 20.960938 C 39.914062 25.234375 37.167969 28.8125 33.609375 28.953125 C 30.050781 29.097656 27.027344 25.75 26.855469 21.476562 C 26.683594 17.203125 29.433594 13.625 32.992188 13.484375 C 36.546875 13.339844 39.570312 16.6875 39.742188 20.960938 Z M 39.742188 20.960938 " fill-opacity="1" fill-rule="nonzero"/><path fill="#2b6777" d="M 19.972656 20.996094 C 23.304688 21.175781 25.867188 24.003906 25.722656 27.339844 C 26.125 30.675781 23.75 33.710938 20.414062 34.125 C 17.09375 33.917969 14.546875 31.089844 14.683594 27.761719 C 14.28125 24.433594 16.644531 21.410156 19.972656 20.996094 Z M 19.972656 20.996094 " fill-opacity="1" fill-rule="nonzero"/><g clip-path="url(#c12bc56375)"><path fill="#2b6777" d="M 8.914062 30.566406 C 12.242188 30.632812 14.882812 33.390625 14.8125 36.71875 C 14.761719 39.242188 13.140625 41.464844 10.757812 42.289062 C 7.765625 42.429688 5.207031 40.15625 4.988281 37.164062 C 4.308594 34.265625 6.042969 31.347656 8.914062 30.566406 Z M 8.914062 30.566406 " fill-opacity="1" fill-rule="nonzero"/></g><g fill="#2b6777" fill-opacity="1"><g transform="translate(160.726064, 76.006387)"><g><path d="M 24.710938 -24.289062 L 21.132812 -24.289062 C 19.382812 -24.289062 18.296875 -23.480469 17.769531 -21.835938 L 15.246094 -13.984375 L 12.230469 -21.941406 C 11.636719 -23.550781 10.550781 -24.289062 8.832031 -24.289062 L 5.609375 -24.289062 C 3.679688 -24.289062 2.628906 -23.238281 2.664062 -21.308594 C 2.699219 -15.175781 2.699219 -9.113281 2.664062 -2.980469 C 2.628906 -1.050781 3.679688 0 5.539062 0 C 7.394531 0 8.410156 -1.050781 8.339844 -3.015625 C 8.203125 -6.660156 8.132812 -10.410156 8.0625 -16.789062 L 8.238281 -16.789062 L 11.917969 -5.257812 C 12.441406 -3.609375 13.25 -2.804688 14.441406 -2.804688 C 15.597656 -2.804688 16.4375 -3.609375 17 -5.222656 L 20.992188 -16.789062 L 21.132812 -16.789062 L 21.167969 -12.160156 C 21.167969 -9.078125 21.132812 -6.027344 21.097656 -2.980469 C 21.097656 -1.050781 22.152344 0 24.078125 0 L 24.710938 0 C 26.636719 0 27.6875 -1.050781 27.6875 -2.980469 C 27.6875 -6.027344 27.652344 -9.078125 27.652344 -12.160156 C 27.652344 -15.210938 27.6875 -18.261719 27.6875 -21.308594 C 27.6875 -23.238281 26.636719 -24.289062 24.710938 -24.289062 Z M 24.710938 -24.289062 "/></g></g></g><g fill="#2b6777" fill-opacity="1"><g transform="translate(191.035818, 76.006387)"><g><path d="M 16.261719 -19.382812 L 16.050781 -19.382812 C 14.125 -19.382812 13.074219 -18.332031 13.109375 -16.402344 C 13.144531 -13.914062 13.179688 -11.496094 13.109375 -8.972656 C 13.109375 -6.097656 11.988281 -4.660156 10.375 -4.625 C 8.972656 -4.589844 8.132812 -5.710938 8.132812 -7.957031 C 8.132812 -10.828125 8.167969 -13.5625 8.203125 -16.402344 C 8.203125 -18.332031 7.148438 -19.382812 5.222656 -19.382812 L 5.011719 -19.382812 C 3.085938 -19.382812 2.03125 -18.332031 2.03125 -16.402344 C 2.066406 -13.179688 2.136719 -10.09375 2.066406 -6.835938 C 1.960938 -1.507812 4.277344 0.386719 7.710938 0.386719 C 10.480469 0.386719 12.476562 -0.945312 13.5625 -3.222656 C 13.632812 -2.664062 13.738281 -2.136719 13.878906 -1.578125 C 14.195312 -0.492188 15.210938 0 16.824219 0 C 18.367188 0 19.242188 -1.050781 19.207031 -2.980469 C 19.207031 -4.976562 19.171875 -6.941406 19.171875 -8.972656 C 19.171875 -11.496094 19.207031 -13.914062 19.242188 -16.402344 C 19.242188 -18.332031 18.191406 -19.382812 16.261719 -19.382812 Z M 16.261719 -19.382812 "/></g></g></g><g fill="#2b6777" fill-opacity="1"><g transform="translate(212.305207, 76.006387)"><g><path d="M 9.324219 0.421875 C 14.929688 0.421875 17.875 -1.753906 17.875 -6.0625 C 17.875 -13.808594 7.289062 -9.671875 7.289062 -13.949219 C 7.289062 -15.035156 7.851562 -15.667969 9.742188 -15.667969 C 10.761719 -15.667969 11.425781 -15.492188 11.8125 -15.105469 C 12.863281 -13.914062 13.039062 -13.039062 14.683594 -13.039062 L 14.824219 -13.039062 C 16.472656 -13.039062 17.734375 -14.125 17.171875 -16.015625 C 16.402344 -18.46875 13.949219 -19.695312 9.742188 -19.695312 C 4.242188 -19.695312 1.507812 -17.734375 1.507812 -13.738281 C 1.507812 -5.503906 12.054688 -9.8125 12.054688 -5.292969 C 12.054688 -4.242188 11.285156 -3.46875 9.078125 -3.46875 C 7.921875 -3.46875 7.253906 -3.644531 6.90625 -4.101562 C 5.886719 -5.433594 5.746094 -6.34375 4.066406 -6.34375 L 3.960938 -6.34375 C 2.3125 -6.34375 1.015625 -5.222656 1.648438 -3.292969 C 2.417969 -0.839844 4.800781 0.421875 9.324219 0.421875 Z M 9.324219 0.421875 "/></g></g></g><g fill="#2b6777" fill-opacity="1"><g transform="translate(231.507222, 76.006387)"><g><path d="M 4.800781 0 L 5.011719 0 C 6.941406 0 7.992188 -1.050781 7.992188 -2.980469 C 7.957031 -6.378906 7.921875 -9.601562 7.957031 -13.074219 C 7.992188 -16.15625 7.992188 -19.3125 7.992188 -22.394531 C 7.992188 -24.324219 6.941406 -25.375 5.011719 -25.375 L 4.800781 -25.375 C 2.875 -25.375 1.824219 -24.324219 1.824219 -22.394531 C 1.859375 -19.3125 1.925781 -16.15625 1.925781 -13.074219 C 1.925781 -9.601562 1.859375 -6.378906 1.824219 -2.980469 C 1.824219 -1.050781 2.875 0 4.800781 0 Z M 4.800781 0 "/></g></g></g><g fill="#2b6777" fill-opacity="1"><g transform="translate(241.353517, 76.006387)"><g><path d="M 4.976562 -21.835938 C 7.570312 -21.835938 8.621094 -22.710938 8.621094 -24.8125 C 8.621094 -26.917969 7.570312 -27.792969 4.976562 -27.792969 C 2.382812 -27.792969 1.332031 -26.917969 1.332031 -24.8125 C 1.332031 -22.710938 2.382812 -21.835938 4.976562 -21.835938 Z M 5.082031 0 C 7.007812 0 8.027344 -1.050781 7.992188 -2.980469 C 7.992188 -4.976562 7.957031 -6.941406 7.992188 -8.972656 C 8.027344 -11.109375 8.027344 -13.949219 8.027344 -16.402344 C 8.027344 -18.332031 6.972656 -19.382812 5.046875 -19.382812 L 5.011719 -19.382812 C 3.085938 -19.382812 2.03125 -18.332031 2.03125 -16.4375 C 2.066406 -14.230469 2.066406 -11.144531 2.101562 -5.957031 L 2.101562 -2.980469 C 2.101562 -1.050781 3.15625 0 5.082031 0 Z M 5.082031 0 "/></g></g></g><g fill="#2b6777" fill-opacity="1"><g transform="translate(251.30493, 76.006387)"><g><path d="M 30.457031 -3.015625 C 30.421875 -6.167969 30.351562 -9.113281 30.421875 -11.566406 C 30.5625 -17.347656 28.703125 -19.695312 25.023438 -19.695312 C 22.324219 -19.695312 20.257812 -18.539062 18.925781 -16.085938 L 18.820312 -16.085938 C 18.050781 -18.609375 16.402344 -19.695312 13.878906 -19.695312 C 11.179688 -19.695312 9.113281 -18.539062 7.78125 -16.085938 L 7.746094 -16.085938 C 7.78125 -16.753906 7.78125 -17.3125 7.816406 -17.769531 C 7.816406 -18.820312 6.730469 -19.417969 4.800781 -19.417969 C 2.875 -19.417969 1.824219 -18.367188 1.859375 -16.4375 C 1.894531 -14.195312 1.925781 -12.023438 1.925781 -9.707031 C 1.925781 -7.394531 1.894531 -5.222656 1.859375 -2.980469 C 1.824219 -1.050781 2.875 0 4.800781 0 L 5.046875 0 C 6.972656 0 8.027344 -1.050781 7.992188 -2.980469 C 7.992188 -5.222656 7.957031 -7.394531 7.992188 -9.707031 L 7.992188 -12.617188 C 8.585938 -13.878906 9.601562 -14.613281 10.933594 -14.648438 C 12.511719 -14.683594 13.316406 -13.914062 13.316406 -11.636719 C 13.316406 -9.21875 13.285156 -6.238281 13.25 -3.015625 C 13.25 -1.050781 14.300781 0 16.226562 0 L 16.332031 0 C 18.261719 0 19.3125 -1.050781 19.3125 -3.015625 C 19.277344 -6.167969 19.207031 -9.113281 19.277344 -11.566406 L 19.277344 -12.863281 C 19.871094 -13.984375 20.820312 -14.613281 22.082031 -14.648438 C 23.65625 -14.683594 24.464844 -13.914062 24.464844 -11.636719 C 24.464844 -9.21875 24.429688 -6.238281 24.394531 -3.015625 C 24.394531 -1.050781 25.445312 0 27.371094 0 L 27.476562 0 C 29.40625 0 30.457031 -1.050781 30.457031 -3.015625 Z M 30.457031 -3.015625 "/></g></g></g><g fill="#2b6777" fill-opacity="1"><g transform="translate(283.787177, 76.006387)"><g/></g></g><g fill="#2b6777" fill-opacity="1"><g transform="translate(292.547226, 76.006387)"><g><path d="M 5.609375 0 L 12.6875 0 C 18.609375 0 21.589844 -3.222656 21.589844 -7.289062 C 21.589844 -10.128906 20.082031 -12.230469 16.789062 -12.546875 L 16.789062 -12.6875 C 19.242188 -13.492188 20.921875 -15.667969 20.921875 -18.785156 C 20.921875 -22.289062 18.644531 -24.289062 11.988281 -24.289062 L 5.679688 -24.289062 C 3.75 -24.289062 2.699219 -23.203125 2.699219 -21.203125 C 2.699219 -11.742188 2.664062 -6.167969 2.628906 -2.980469 C 2.628906 -1.050781 3.679688 0 5.609375 0 Z M 8.867188 -14.511719 C 8.867188 -17.035156 8.867188 -18.609375 8.902344 -20.082031 L 10.898438 -20.082031 C 13.421875 -20.082031 14.71875 -19.382812 14.71875 -17.699219 C 14.71875 -15.980469 13.5625 -14.511719 9.953125 -14.511719 Z M 8.902344 -4.171875 C 8.867188 -5.644531 8.867188 -7.113281 8.867188 -8.585938 L 8.867188 -11.25 L 11.425781 -11.25 C 14.195312 -11.25 15.527344 -9.882812 15.527344 -7.851562 C 15.527344 -5.503906 13.84375 -4.171875 10.898438 -4.171875 Z M 8.902344 -4.171875 "/></g></g></g><g fill="#2b6777" fill-opacity="1"><g transform="translate(315.708781, 76.006387)"><g><path d="M 7.324219 0.351562 C 9.289062 0.351562 11.179688 -0.316406 12.582031 -1.683594 C 12.617188 -1.402344 12.652344 -1.121094 12.757812 -0.839844 C 12.898438 -0.28125 13.84375 0 15.632812 0 L 15.945312 0 C 17.839844 0 18.820312 -1.085938 18.714844 -3.050781 C 18.609375 -5.433594 18.609375 -8.480469 18.609375 -12.6875 C 18.609375 -17.382812 16.015625 -19.695312 10.792969 -19.695312 C 5.679688 -19.695312 2.980469 -18.332031 2.171875 -15.597656 C 1.613281 -13.667969 3.050781 -12.546875 5.011719 -12.546875 L 5.363281 -12.546875 C 7.078125 -12.546875 7.21875 -13.492188 8.238281 -15.035156 C 8.65625 -15.667969 9.429688 -15.910156 10.339844 -15.910156 C 11.882812 -15.910156 12.582031 -15.140625 12.582031 -12.582031 L 12.582031 -11.390625 C 4.695312 -11.601562 1.085938 -9.324219 1.085938 -4.941406 C 1.085938 -1.261719 3.855469 0.351562 7.324219 0.351562 Z M 9.183594 -3.609375 C 7.535156 -3.609375 6.660156 -4.554688 6.660156 -5.886719 C 6.660156 -8.132812 9.464844 -8.515625 12.652344 -8.585938 L 12.652344 -5.433594 C 11.847656 -4.277344 10.761719 -3.609375 9.183594 -3.609375 Z M 9.183594 -3.609375 "/></g></g></g><g fill="#2b6777" fill-opacity="1"><g transform="translate(336.10216, 76.006387)"><g><path d="M 11.847656 -19.660156 C 10.199219 -19.660156 8.867188 -19.066406 7.816406 -18.15625 C 7.851562 -19.558594 7.851562 -20.992188 7.851562 -22.394531 C 7.851562 -24.324219 6.800781 -25.375 4.871094 -25.375 L 4.800781 -25.375 C 2.875 -25.375 1.824219 -24.324219 1.824219 -22.394531 C 1.859375 -19.3125 1.925781 -16.15625 1.925781 -13.074219 C 1.925781 -9.636719 1.859375 -6.378906 1.824219 -2.980469 C 1.824219 -1.050781 2.347656 0 3.292969 0 C 4.3125 0 5.117188 -0.492188 6.203125 -1.578125 C 6.449219 -1.824219 6.695312 -2.066406 6.90625 -2.3125 C 7.957031 -0.664062 9.707031 0.386719 11.953125 0.386719 C 16.085938 0.386719 19.417969 -3.085938 19.417969 -10.023438 C 19.417969 -17.382812 16.085938 -19.660156 11.847656 -19.660156 Z M 10.339844 -4.347656 C 9.183594 -4.347656 8.238281 -4.800781 7.816406 -6.203125 C 7.78125 -8.375 7.746094 -10.550781 7.78125 -12.863281 L 7.78125 -13.949219 C 8.445312 -14.476562 9.21875 -14.71875 10.199219 -14.71875 C 12.441406 -14.71875 13.738281 -13.386719 13.738281 -9.671875 C 13.738281 -5.363281 12.160156 -4.347656 10.339844 -4.347656 Z M 10.339844 -4.347656 "/></g></g></g><g fill="#2b6777" fill-opacity="1"><g transform="translate(356.775867, 76.006387)"><g><path d="M 19.171875 -8.972656 C 19.171875 -11.496094 19.207031 -13.914062 19.242188 -16.367188 C 19.242188 -18.332031 18.191406 -19.382812 16.261719 -19.382812 L 16.050781 -19.382812 C 14.125 -19.382812 13.074219 -18.332031 13.109375 -16.402344 C 13.144531 -13.914062 13.179688 -11.496094 13.109375 -8.972656 C 13.109375 -6.34375 12.125 -5.011719 10.480469 -4.976562 C 9.113281 -4.941406 8.132812 -5.957031 8.132812 -7.957031 C 8.132812 -10.828125 8.167969 -13.5625 8.203125 -16.402344 C 8.203125 -18.332031 7.148438 -19.382812 5.222656 -19.382812 L 5.011719 -19.382812 C 3.085938 -19.382812 2.03125 -18.332031 2.03125 -16.402344 C 2.066406 -13.179688 2.136719 -10.09375 2.066406 -6.835938 C 1.960938 -1.507812 4.171875 0.386719 7.921875 0.386719 C 10.585938 0.386719 12.757812 -1.226562 13.738281 -3.960938 L 13.878906 -3.890625 C 13.878906 2.101562 11.636719 3.714844 6.238281 3.433594 C 4.242188 3.363281 3.085938 3.996094 2.980469 5.539062 C 2.839844 7.148438 3.539062 8.339844 5.292969 8.65625 C 6.027344 8.761719 6.835938 8.832031 7.640625 8.832031 C 14.71875 8.832031 19.347656 5.082031 19.207031 -4.554688 C 19.207031 -6.027344 19.171875 -7.464844 19.171875 -8.972656 Z M 19.171875 -8.972656 "/></g></g></g><g fill="#2b6777" fill-opacity="1"><g transform="translate(211.203498, 110.578327)"><g><path d="M 18.574219 -24.289062 C 16.71875 -24.289062 15.773438 -23.203125 15.910156 -21.203125 C 16.15625 -17.910156 16.332031 -14.511719 16.4375 -10.691406 L 16.367188 -10.691406 L 10.898438 -22.082031 C 10.164062 -23.621094 9.078125 -24.289062 7.394531 -24.289062 L 5.609375 -24.289062 C 3.679688 -24.289062 2.628906 -23.238281 2.664062 -21.308594 C 2.699219 -15.175781 2.699219 -9.113281 2.664062 -2.980469 C 2.628906 -1.050781 3.644531 0 5.46875 0 C 7.289062 0 8.238281 -1.085938 8.132812 -3.085938 C 7.851562 -7.289062 7.675781 -11.285156 7.570312 -16.261719 L 7.640625 -16.261719 L 14.40625 -2.207031 C 15.140625 -0.664062 16.226562 0 17.910156 0 L 18.433594 0 C 20.363281 0 21.414062 -1.050781 21.378906 -2.980469 C 21.34375 -9.113281 21.34375 -15.175781 21.378906 -21.308594 C 21.414062 -23.238281 20.433594 -24.289062 18.574219 -24.289062 Z M 18.574219 -24.289062 "/></g></g></g><g fill="#2b6777" fill-opacity="1"><g transform="translate(235.241062, 110.578327)"><g><path d="M 7.324219 0.351562 C 9.289062 0.351562 11.179688 -0.316406 12.582031 -1.683594 C 12.617188 -1.402344 12.652344 -1.121094 12.757812 -0.839844 C 12.898438 -0.28125 13.84375 0 15.632812 0 L 15.945312 0 C 17.839844 0 18.820312 -1.085938 18.714844 -3.050781 C 18.609375 -5.433594 18.609375 -8.480469 18.609375 -12.6875 C 18.609375 -17.382812 16.015625 -19.695312 10.792969 -19.695312 C 5.679688 -19.695312 2.980469 -18.332031 2.171875 -15.597656 C 1.613281 -13.667969 3.050781 -12.546875 5.011719 -12.546875 L 5.363281 -12.546875 C 7.078125 -12.546875 7.21875 -13.492188 8.238281 -15.035156 C 8.65625 -15.667969 9.429688 -15.910156 10.339844 -15.910156 C 11.882812 -15.910156 12.582031 -15.140625 12.582031 -12.582031 L 12.582031 -11.390625 C 4.695312 -11.601562 1.085938 -9.324219 1.085938 -4.941406 C 1.085938 -1.261719 3.855469 0.351562 7.324219 0.351562 Z M 9.183594 -3.609375 C 7.535156 -3.609375 6.660156 -4.554688 6.660156 -5.886719 C 6.660156 -8.132812 9.464844 -8.515625 12.652344 -8.585938 L 12.652344 -5.433594 C 11.847656 -4.277344 10.761719 -3.609375 9.183594 -3.609375 Z M 9.183594 -3.609375 "/></g></g></g><g fill="#2b6777" fill-opacity="1"><g transform="translate(255.634441, 110.578327)"><g><path d="M 30.457031 -3.015625 C 30.421875 -6.167969 30.351562 -9.113281 30.421875 -11.566406 C 30.5625 -17.347656 28.703125 -19.695312 25.023438 -19.695312 C 22.324219 -19.695312 20.257812 -18.539062 18.925781 -16.085938 L 18.820312 -16.085938 C 18.050781 -18.609375 16.402344 -19.695312 13.878906 -19.695312 C 11.179688 -19.695312 9.113281 -18.539062 7.78125 -16.085938 L 7.746094 -16.085938 C 7.78125 -16.753906 7.78125 -17.3125 7.816406 -17.769531 C 7.816406 -18.820312 6.730469 -19.417969 4.800781 -19.417969 C 2.875 -19.417969 1.824219 -18.367188 1.859375 -16.4375 C 1.894531 -14.195312 1.925781 -12.023438 1.925781 -9.707031 C 1.925781 -7.394531 1.894531 -5.222656 1.859375 -2.980469 C 1.824219 -1.050781 2.875 0 4.800781 0 L 5.046875 0 C 6.972656 0 8.027344 -1.050781 7.992188 -2.980469 C 7.992188 -5.222656 7.957031 -7.394531 7.992188 -9.707031 L 7.992188 -12.617188 C 8.585938 -13.878906 9.601562 -14.613281 10.933594 -14.648438 C 12.511719 -14.683594 13.316406 -13.914062 13.316406 -11.636719 C 13.316406 -9.21875 13.285156 -6.238281 13.25 -3.015625 C 13.25 -1.050781 14.300781 0 16.226562 0 L 16.332031 0 C 18.261719 0 19.3125 -1.050781 19.3125 -3.015625 C 19.277344 -6.167969 19.207031 -9.113281 19.277344 -11.566406 L 19.277344 -12.863281 C 19.871094 -13.984375 20.820312 -14.613281 22.082031 -14.648438 C 23.65625 -14.683594 24.464844 -13.914062 24.464844 -11.636719 C 24.464844 -9.21875 24.429688 -6.238281 24.394531 -3.015625 C 24.394531 -1.050781 25.445312 0 27.371094 0 L 27.476562 0 C 29.40625 0 30.457031 -1.050781 30.457031 -3.015625 Z M 30.457031 -3.015625 "/></g></g></g><g fill="#2b6777" fill-opacity="1"><g transform="translate(288.116688, 110.578327)"><g><path d="M 10.304688 0.351562 C 14.613281 0.351562 17.242188 -0.875 18.085938 -3.46875 C 18.609375 -5.046875 17.3125 -6.027344 15.492188 -6.027344 C 13.984375 -6.027344 13.84375 -5.046875 12.511719 -4.171875 C 12.023438 -3.890625 11.285156 -3.714844 10.339844 -3.714844 C 8.515625 -3.714844 7.183594 -4.589844 7.042969 -8.203125 L 18.226562 -8.203125 C 18.503906 -8.203125 18.714844 -8.410156 18.75 -8.761719 C 19.417969 -15.28125 16.824219 -19.695312 10.304688 -19.695312 C 4.242188 -19.695312 1.261719 -16.4375 1.261719 -9.988281 C 1.261719 -3.085938 4.03125 0.351562 10.304688 0.351562 Z M 7.078125 -11.496094 C 7.007812 -14.335938 8.203125 -15.703125 10.023438 -15.703125 C 12.054688 -15.703125 12.898438 -14.300781 12.828125 -11.496094 Z M 7.078125 -11.496094 "/></g></g></g><g fill="#2b6777" fill-opacity="1"><g transform="translate(308.369909, 110.578327)"><g><path d="M 9.324219 0.421875 C 14.929688 0.421875 17.875 -1.753906 17.875 -6.0625 C 17.875 -13.808594 7.289062 -9.671875 7.289062 -13.949219 C 7.289062 -15.035156 7.851562 -15.667969 9.742188 -15.667969 C 10.761719 -15.667969 11.425781 -15.492188 11.8125 -15.105469 C 12.863281 -13.914062 13.039062 -13.039062 14.683594 -13.039062 L 14.824219 -13.039062 C 16.472656 -13.039062 17.734375 -14.125 17.171875 -16.015625 C 16.402344 -18.46875 13.949219 -19.695312 9.742188 -19.695312 C 4.242188 -19.695312 1.507812 -17.734375 1.507812 -13.738281 C 1.507812 -5.503906 12.054688 -9.8125 12.054688 -5.292969 C 12.054688 -4.242188 11.285156 -3.46875 9.078125 -3.46875 C 7.921875 -3.46875 7.253906 -3.644531 6.90625 -4.101562 C 5.886719 -5.433594 5.746094 -6.34375 4.066406 -6.34375 L 3.960938 -6.34375 C 2.3125 -6.34375 1.015625 -5.222656 1.648438 -3.292969 C 2.417969 -0.839844 4.800781 0.421875 9.324219 0.421875 Z M 9.324219 0.421875 "/></g></g></g></svg>