<svg xmlns="http://www.w3.org/2000/svg" xmlns:xlink="http://www.w3.org/1999/xlink" width="512" zoomAndPan="magnify" viewBox="0 0 384 187.499995" height="250" preserveAspectRatio="xMidYMid meet" version="1.0"><defs><g/><clipPath id="5c71c4c470"><path d="M 32 32.335938 L 45 32.335938 L 45 47 L 32 47 Z M 32 32.335938 " clip-rule="nonzero"/></clipPath><clipPath id="50aa5fb2a8"><path d="M 4.25 49 L 13 49 L 13 59 L 4.25 59 Z M 4.25 49 " clip-rule="nonzero"/></clipPath></defs><path fill="#ffffff" d="M 68.480469 135.304688 C 72.183594 128.472656 72.183594 120.222656 68.480469 113.390625 C 65.1875 107.3125 61.472656 97.003906 69.191406 90.394531 C 80.695312 80.558594 111.4375 89.15625 107.691406 105.515625 C 102.398438 128.65625 102.355469 145.214844 87.050781 153.515625 C 81.75 156.492188 75.214844 156.148438 70.253906 152.632812 C 66.269531 149.699219 63.289062 144.574219 68.195312 135.886719 Z M 68.480469 135.304688 " fill-opacity="1" fill-rule="nonzero"/><path fill="#ffffff" d="M 62.054688 70.492188 C 58.027344 71.644531 55.882812 76.5 57.261719 81.324219 C 58.636719 86.152344 62.933594 89.144531 67.035156 87.988281 C 71.132812 86.835938 73.191406 81.996094 71.816406 77.152344 C 70.4375 72.3125 66.125 69.351562 62.054688 70.492188 Z M 62.054688 70.492188 " fill-opacity="1" fill-rule="nonzero"/><path fill="#ffffff" d="M 79.234375 67.886719 C 75.914062 67.984375 73.316406 71.332031 73.445312 75.332031 C 73.574219 79.332031 76.398438 82.453125 79.714844 82.367188 C 83.035156 82.28125 85.632812 78.921875 85.503906 74.917969 C 85.375 70.917969 82.566406 67.773438 79.234375 67.886719 Z M 79.234375 67.886719 " fill-opacity="1" fill-rule="nonzero"/><path fill="#ffffff" d="M 92.101562 71.53125 C 89.347656 71.417969 87.023438 74.007812 86.894531 77.226562 C 86.765625 80.441406 88.882812 83.289062 91.632812 83.390625 C 94.386719 83.492188 96.699219 80.914062 96.824219 77.625 C 96.953125 74.335938 94.839844 71.628906 92.101562 71.53125 Z M 92.101562 71.53125 " fill-opacity="1" fill-rule="nonzero"/><path fill="#ffffff" d="M 102.117188 77.296875 C 99.339844 76.667969 96.585938 78.417969 95.960938 81.203125 C 95.335938 83.988281 97.078125 86.753906 99.855469 87.382812 C 102.628906 88.007812 105.382812 86.257812 106.007812 83.472656 C 106.078125 83.167969 106.117188 82.851562 106.128906 82.535156 C 106.433594 79.984375 104.652344 77.660156 102.117188 77.296875 Z M 102.117188 77.296875 " fill-opacity="1" fill-rule="nonzero"/><path fill="#ffffff" d="M 110.628906 84.699219 C 108.203125 83.867188 105.566406 85.164062 104.738281 87.597656 C 103.90625 90.03125 105.199219 92.675781 107.621094 93.511719 C 110.046875 94.34375 112.683594 93.046875 113.511719 90.613281 C 113.609375 90.328125 113.679688 90.039062 113.71875 89.742188 C 114.203125 87.5 112.839844 85.273438 110.628906 84.699219 Z M 110.628906 84.699219 " fill-opacity="1" fill-rule="nonzero"/><path fill="#ffffff" d="M 49.953125 99.921875 C 46.25 93.097656 46.25 84.847656 49.953125 78.023438 C 53.246094 71.945312 56.960938 61.621094 49.246094 55.027344 C 37.742188 45.191406 7 53.777344 10.746094 70.136719 C 16.078125 93.273438 16.121094 109.832031 31.425781 118.21875 C 36.730469 121.191406 43.265625 120.84375 48.222656 117.320312 C 52.210938 114.472656 55.1875 109.261719 50.28125 100.574219 C 50.167969 100.304688 50.054688 100.121094 49.953125 99.921875 Z M 49.953125 99.921875 " fill-opacity="1" fill-rule="nonzero"/><path fill="#ffffff" d="M 56.378906 35.066406 C 60.410156 36.21875 62.550781 41.0625 61.175781 45.902344 C 59.800781 50.742188 55.5 53.703125 51.402344 52.550781 C 47.300781 51.398438 45.246094 46.554688 46.621094 41.730469 C 47.996094 36.902344 52.308594 33.914062 56.378906 35.066406 Z M 56.378906 35.066406 " fill-opacity="1" fill-rule="nonzero"/><g clip-path="url(#5c71c4c470)"><path fill="#ffffff" d="M 39.203125 32.445312 C 42.519531 32.558594 45.117188 35.890625 44.988281 39.894531 C 44.859375 43.894531 42.039062 47.011719 38.71875 46.941406 C 35.398438 46.871094 32.804688 43.496094 32.929688 39.496094 C 33.058594 35.492188 35.867188 32.332031 39.203125 32.445312 Z M 39.203125 32.445312 " fill-opacity="1" fill-rule="nonzero"/></g><path fill="#ffffff" d="M 31.539062 41.847656 C 31.671875 45.144531 29.558594 47.910156 26.820312 48.019531 C 24.078125 48.128906 21.75 45.542969 21.621094 42.242188 C 21.488281 38.945312 23.601562 36.179688 26.34375 36.070312 C 29.082031 35.960938 31.40625 38.546875 31.539062 41.847656 Z M 31.539062 41.847656 " fill-opacity="1" fill-rule="nonzero"/><path fill="#ffffff" d="M 16.320312 41.871094 C 18.882812 42.011719 20.859375 44.195312 20.746094 46.769531 C 21.054688 49.347656 19.226562 51.691406 16.660156 52.011719 C 14.101562 51.851562 12.144531 49.667969 12.25 47.097656 C 11.9375 44.527344 13.757812 42.191406 16.320312 41.871094 Z M 16.320312 41.871094 " fill-opacity="1" fill-rule="nonzero"/><g clip-path="url(#50aa5fb2a8)"><path fill="#ffffff" d="M 7.808594 49.261719 C 10.367188 49.316406 12.402344 51.441406 12.347656 54.015625 C 12.308594 55.964844 11.0625 57.679688 9.226562 58.316406 C 6.921875 58.421875 4.953125 56.667969 4.785156 54.359375 C 4.261719 52.121094 5.597656 49.867188 7.808594 49.261719 Z M 7.808594 49.261719 " fill-opacity="1" fill-rule="nonzero"/></g><g fill="#ffffff" fill-opacity="1"><g transform="translate(120.556943, 79.171364)"><g><path d="M 29.265625 -28.769531 L 25.03125 -28.769531 C 22.957031 -28.769531 21.671875 -27.816406 21.046875 -25.863281 L 18.058594 -16.5625 L 14.488281 -25.988281 C 13.78125 -27.898438 12.496094 -28.769531 10.460938 -28.769531 L 6.640625 -28.769531 C 4.359375 -28.769531 3.113281 -27.523438 3.15625 -25.242188 C 3.195312 -17.976562 3.195312 -10.792969 3.15625 -3.527344 C 3.113281 -1.246094 4.359375 0 6.558594 0 C 8.757812 0 9.964844 -1.246094 9.878906 -3.570312 C 9.714844 -7.886719 9.632812 -12.328125 9.546875 -19.886719 L 9.753906 -19.886719 L 14.113281 -6.226562 C 14.738281 -4.277344 15.691406 -3.320312 17.105469 -3.320312 C 18.472656 -3.320312 19.46875 -4.277344 20.132812 -6.1875 L 24.867188 -19.886719 L 25.03125 -19.886719 L 25.074219 -14.40625 C 25.074219 -10.753906 25.03125 -7.140625 24.992188 -3.527344 C 24.992188 -1.246094 26.238281 0 28.519531 0 L 29.265625 0 C 31.550781 0 32.796875 -1.246094 32.796875 -3.527344 C 32.796875 -7.140625 32.753906 -10.753906 32.753906 -14.40625 C 32.753906 -18.015625 32.796875 -21.628906 32.796875 -25.242188 C 32.796875 -27.523438 31.550781 -28.769531 29.265625 -28.769531 Z M 29.265625 -28.769531 "/></g></g></g><g fill="#ffffff" fill-opacity="1"><g transform="translate(156.466823, 79.171364)"><g><path d="M 19.261719 -22.957031 L 19.011719 -22.957031 C 16.730469 -22.957031 15.484375 -21.710938 15.527344 -19.429688 C 15.566406 -16.480469 15.609375 -13.617188 15.527344 -10.628906 C 15.527344 -7.222656 14.199219 -5.519531 12.289062 -5.480469 C 10.628906 -5.4375 9.632812 -6.765625 9.632812 -9.421875 C 9.632812 -12.828125 9.671875 -16.066406 9.714844 -19.429688 C 9.714844 -21.710938 8.46875 -22.957031 6.1875 -22.957031 L 5.9375 -22.957031 C 3.652344 -22.957031 2.40625 -21.710938 2.40625 -19.429688 C 2.449219 -15.609375 2.53125 -11.957031 2.449219 -8.09375 C 2.324219 -1.785156 5.066406 0.457031 9.132812 0.457031 C 12.414062 0.457031 14.777344 -1.121094 16.066406 -3.820312 C 16.148438 -3.15625 16.273438 -2.53125 16.441406 -1.867188 C 16.8125 -0.582031 18.015625 0 19.925781 0 C 21.753906 0 22.792969 -1.246094 22.75 -3.527344 C 22.75 -5.894531 22.707031 -8.21875 22.707031 -10.628906 C 22.707031 -13.617188 22.75 -16.480469 22.792969 -19.429688 C 22.792969 -21.710938 21.546875 -22.957031 19.261719 -22.957031 Z M 19.261719 -22.957031 "/></g></g></g><g fill="#ffffff" fill-opacity="1"><g transform="translate(181.666015, 79.171364)"><g><path d="M 11.042969 0.5 C 17.683594 0.5 21.171875 -2.074219 21.171875 -7.183594 C 21.171875 -16.355469 8.636719 -11.457031 8.636719 -16.523438 C 8.636719 -17.808594 9.300781 -18.558594 11.539062 -18.558594 C 12.746094 -18.558594 13.535156 -18.347656 13.992188 -17.894531 C 15.234375 -16.480469 15.441406 -15.441406 17.394531 -15.441406 L 17.558594 -15.441406 C 19.511719 -15.441406 21.007812 -16.730469 20.34375 -18.972656 C 19.429688 -21.878906 16.523438 -23.332031 11.539062 -23.332031 C 5.023438 -23.332031 1.785156 -21.007812 1.785156 -16.273438 C 1.785156 -6.519531 14.28125 -11.625 14.28125 -6.269531 C 14.28125 -5.023438 13.367188 -4.109375 10.753906 -4.109375 C 9.382812 -4.109375 8.59375 -4.316406 8.179688 -4.855469 C 6.972656 -6.433594 6.808594 -7.515625 4.816406 -7.515625 L 4.691406 -7.515625 C 2.738281 -7.515625 1.203125 -6.1875 1.949219 -3.902344 C 2.863281 -0.996094 5.6875 0.5 11.042969 0.5 Z M 11.042969 0.5 "/></g></g></g><g fill="#ffffff" fill-opacity="1"><g transform="translate(204.41586, 79.171364)"><g><path d="M 5.6875 0 L 5.9375 0 C 8.21875 0 9.464844 -1.246094 9.464844 -3.527344 C 9.421875 -7.554688 9.382812 -11.375 9.421875 -15.484375 C 9.464844 -19.136719 9.464844 -22.875 9.464844 -26.527344 C 9.464844 -28.8125 8.21875 -30.054688 5.9375 -30.054688 L 5.6875 -30.054688 C 3.402344 -30.054688 2.160156 -28.8125 2.160156 -26.527344 C 2.199219 -22.875 2.285156 -19.136719 2.285156 -15.484375 C 2.285156 -11.375 2.199219 -7.554688 2.160156 -3.527344 C 2.160156 -1.246094 3.402344 0 5.6875 0 Z M 5.6875 0 "/></g></g></g><g fill="#ffffff" fill-opacity="1"><g transform="translate(216.08138, 79.171364)"><g><path d="M 5.894531 -25.863281 C 8.96875 -25.863281 10.210938 -26.902344 10.210938 -29.390625 C 10.210938 -31.882812 8.96875 -32.921875 5.894531 -32.921875 C 2.824219 -32.921875 1.578125 -31.882812 1.578125 -29.390625 C 1.578125 -26.902344 2.824219 -25.863281 5.894531 -25.863281 Z M 6.019531 0 C 8.304688 0 9.507812 -1.246094 9.464844 -3.527344 C 9.464844 -5.894531 9.421875 -8.21875 9.464844 -10.628906 C 9.507812 -13.160156 9.507812 -16.523438 9.507812 -19.429688 C 9.507812 -21.710938 8.261719 -22.957031 5.976562 -22.957031 L 5.9375 -22.957031 C 3.652344 -22.957031 2.40625 -21.710938 2.40625 -19.46875 C 2.449219 -16.855469 2.449219 -13.203125 2.492188 -7.058594 L 2.492188 -3.527344 C 2.492188 -1.246094 3.734375 0 6.019531 0 Z M 6.019531 0 "/></g></g></g><g fill="#ffffff" fill-opacity="1"><g transform="translate(227.871445, 79.171364)"><g><path d="M 36.074219 -3.570312 C 36.035156 -7.304688 35.953125 -10.792969 36.035156 -13.699219 C 36.199219 -20.550781 34 -23.332031 29.640625 -23.332031 C 26.445312 -23.332031 23.996094 -21.960938 22.417969 -19.054688 L 22.292969 -19.054688 C 21.378906 -22.042969 19.429688 -23.332031 16.441406 -23.332031 C 13.242188 -23.332031 10.792969 -21.960938 9.214844 -19.054688 L 9.175781 -19.054688 C 9.214844 -19.84375 9.214844 -20.507812 9.257812 -21.046875 C 9.257812 -22.292969 7.972656 -23 5.6875 -23 C 3.402344 -23 2.160156 -21.753906 2.199219 -19.46875 C 2.242188 -16.8125 2.285156 -14.238281 2.285156 -11.5 C 2.285156 -8.757812 2.242188 -6.1875 2.199219 -3.527344 C 2.160156 -1.246094 3.402344 0 5.6875 0 L 5.976562 0 C 8.261719 0 9.507812 -1.246094 9.464844 -3.527344 C 9.464844 -6.1875 9.421875 -8.757812 9.464844 -11.5 L 9.464844 -14.945312 C 10.171875 -16.441406 11.375 -17.3125 12.953125 -17.351562 C 14.820312 -17.394531 15.777344 -16.480469 15.777344 -13.78125 C 15.777344 -10.917969 15.734375 -7.390625 15.691406 -3.570312 C 15.691406 -1.246094 16.9375 0 19.222656 0 L 19.34375 0 C 21.628906 0 22.875 -1.246094 22.875 -3.570312 C 22.832031 -7.304688 22.75 -10.792969 22.832031 -13.699219 L 22.832031 -15.234375 C 23.539062 -16.5625 24.660156 -17.3125 26.152344 -17.351562 C 28.023438 -17.394531 28.976562 -16.480469 28.976562 -13.78125 C 28.976562 -10.917969 28.933594 -7.390625 28.894531 -3.570312 C 28.894531 -1.246094 30.140625 0 32.421875 0 L 32.546875 0 C 34.832031 0 36.074219 -1.246094 36.074219 -3.570312 Z M 36.074219 -3.570312 "/></g></g></g><g fill="#ffffff" fill-opacity="1"><g transform="translate(266.355218, 79.171364)"><g/></g></g><g fill="#ffffff" fill-opacity="1"><g transform="translate(276.733803, 79.171364)"><g><path d="M 6.640625 0 L 15.027344 0 C 22.042969 0 25.574219 -3.820312 25.574219 -8.636719 C 25.574219 -11.996094 23.789062 -14.488281 19.886719 -14.863281 L 19.886719 -15.027344 C 22.792969 -15.984375 24.785156 -18.558594 24.785156 -22.25 C 24.785156 -26.402344 22.085938 -28.769531 14.199219 -28.769531 L 6.726562 -28.769531 C 4.441406 -28.769531 3.195312 -27.484375 3.195312 -25.117188 C 3.195312 -13.90625 3.15625 -7.304688 3.113281 -3.527344 C 3.113281 -1.246094 4.359375 0 6.640625 0 Z M 10.503906 -17.1875 C 10.503906 -20.175781 10.503906 -22.042969 10.542969 -23.789062 L 12.910156 -23.789062 C 15.898438 -23.789062 17.4375 -22.957031 17.4375 -20.964844 C 17.4375 -18.929688 16.066406 -17.1875 11.789062 -17.1875 Z M 10.542969 -4.941406 C 10.503906 -6.683594 10.503906 -8.425781 10.503906 -10.171875 L 10.503906 -13.324219 L 13.535156 -13.324219 C 16.8125 -13.324219 18.390625 -11.707031 18.390625 -9.300781 C 18.390625 -6.519531 16.398438 -4.941406 12.910156 -4.941406 Z M 10.542969 -4.941406 "/></g></g></g><g fill="#ffffff" fill-opacity="1"><g transform="translate(304.174762, 79.171364)"><g><path d="M 8.675781 0.414062 C 11 0.414062 13.242188 -0.375 14.902344 -1.992188 C 14.945312 -1.660156 14.988281 -1.328125 15.109375 -0.996094 C 15.277344 -0.332031 16.398438 0 18.515625 0 L 18.890625 0 C 21.128906 0 22.292969 -1.285156 22.167969 -3.613281 C 22.042969 -6.433594 22.042969 -10.046875 22.042969 -15.027344 C 22.042969 -20.589844 18.972656 -23.332031 12.785156 -23.332031 C 6.726562 -23.332031 3.527344 -21.710938 2.574219 -18.472656 C 1.910156 -16.191406 3.613281 -14.863281 5.9375 -14.863281 L 6.351562 -14.863281 C 8.386719 -14.863281 8.550781 -15.984375 9.753906 -17.808594 C 10.253906 -18.558594 11.167969 -18.847656 12.246094 -18.847656 C 14.074219 -18.847656 14.902344 -17.933594 14.902344 -14.902344 L 14.902344 -13.492188 C 5.5625 -13.742188 1.285156 -11.042969 1.285156 -5.851562 C 1.285156 -1.496094 4.566406 0.414062 8.675781 0.414062 Z M 10.875 -4.277344 C 8.925781 -4.277344 7.886719 -5.398438 7.886719 -6.972656 C 7.886719 -9.632812 11.207031 -10.089844 14.988281 -10.171875 L 14.988281 -6.433594 C 14.03125 -5.066406 12.746094 -4.277344 10.875 -4.277344 Z M 10.875 -4.277344 "/></g></g></g><g fill="#ffffff" fill-opacity="1"><g transform="translate(328.336087, 79.171364)"><g><path d="M 14.03125 -23.289062 C 12.082031 -23.289062 10.503906 -22.582031 9.257812 -21.503906 C 9.300781 -23.164062 9.300781 -24.867188 9.300781 -26.527344 C 9.300781 -28.8125 8.054688 -30.054688 5.769531 -30.054688 L 5.6875 -30.054688 C 3.402344 -30.054688 2.160156 -28.8125 2.160156 -26.527344 C 2.199219 -22.875 2.285156 -19.136719 2.285156 -15.484375 C 2.285156 -11.417969 2.199219 -7.554688 2.160156 -3.527344 C 2.160156 -1.246094 2.78125 0 3.902344 0 C 5.105469 0 6.0625 -0.582031 7.347656 -1.867188 C 7.636719 -2.160156 7.929688 -2.449219 8.179688 -2.738281 C 9.421875 -0.789062 11.5 0.457031 14.15625 0.457031 C 19.054688 0.457031 23 -3.652344 23 -11.875 C 23 -20.589844 19.054688 -23.289062 14.03125 -23.289062 Z M 12.246094 -5.148438 C 10.875 -5.148438 9.753906 -5.6875 9.257812 -7.347656 C 9.214844 -9.921875 9.175781 -12.496094 9.214844 -15.234375 L 9.214844 -16.523438 C 10.003906 -17.144531 10.917969 -17.4375 12.082031 -17.4375 C 14.738281 -17.4375 16.273438 -15.859375 16.273438 -11.457031 C 16.273438 -6.351562 14.40625 -5.148438 12.246094 -5.148438 Z M 12.246094 -5.148438 "/></g></g></g><g fill="#ffffff" fill-opacity="1"><g transform="translate(352.829539, 79.171364)"><g><path d="M 22.707031 -10.628906 C 22.707031 -13.617188 22.75 -16.480469 22.792969 -19.386719 C 22.792969 -21.710938 21.546875 -22.957031 19.261719 -22.957031 L 19.011719 -22.957031 C 16.730469 -22.957031 15.484375 -21.710938 15.527344 -19.429688 C 15.566406 -16.480469 15.609375 -13.617188 15.527344 -10.628906 C 15.527344 -7.515625 14.363281 -5.9375 12.414062 -5.894531 C 10.792969 -5.851562 9.632812 -7.058594 9.632812 -9.421875 C 9.632812 -12.828125 9.671875 -16.066406 9.714844 -19.429688 C 9.714844 -21.710938 8.46875 -22.957031 6.1875 -22.957031 L 5.9375 -22.957031 C 3.652344 -22.957031 2.40625 -21.710938 2.40625 -19.429688 C 2.449219 -15.609375 2.53125 -11.957031 2.449219 -8.09375 C 2.324219 -1.785156 4.941406 0.457031 9.382812 0.457031 C 12.539062 0.457031 15.109375 -1.453125 16.273438 -4.691406 L 16.441406 -4.609375 C 16.441406 2.492188 13.78125 4.402344 7.390625 4.070312 C 5.023438 3.984375 3.652344 4.734375 3.527344 6.558594 C 3.363281 8.46875 4.191406 9.878906 6.269531 10.253906 C 7.140625 10.378906 8.09375 10.460938 9.050781 10.460938 C 17.4375 10.460938 22.914062 6.019531 22.75 -5.398438 C 22.75 -7.140625 22.707031 -8.84375 22.707031 -10.628906 Z M 22.707031 -10.628906 "/></g></g></g><g fill="#ffffff" fill-opacity="1"><g transform="translate(180.362302, 120.311654)"><g><path d="M 22.003906 -28.769531 C 19.800781 -28.769531 18.679688 -27.484375 18.847656 -25.117188 C 19.136719 -21.214844 19.34375 -17.1875 19.46875 -12.660156 L 19.386719 -12.660156 L 12.910156 -26.152344 C 12.039062 -27.980469 10.753906 -28.769531 8.757812 -28.769531 L 6.640625 -28.769531 C 4.359375 -28.769531 3.113281 -27.523438 3.15625 -25.242188 C 3.195312 -17.976562 3.195312 -10.792969 3.15625 -3.527344 C 3.113281 -1.246094 4.316406 0 6.476562 0 C 8.636719 0 9.753906 -1.285156 9.632812 -3.652344 C 9.300781 -8.636719 9.089844 -13.367188 8.96875 -19.261719 L 9.050781 -19.261719 L 17.0625 -2.617188 C 17.933594 -0.789062 19.222656 0 21.214844 0 L 21.835938 0 C 24.121094 0 25.363281 -1.246094 25.324219 -3.527344 C 25.28125 -10.792969 25.28125 -17.976562 25.324219 -25.242188 C 25.363281 -27.523438 24.203125 -28.769531 22.003906 -28.769531 Z M 22.003906 -28.769531 "/></g></g></g><g fill="#ffffff" fill-opacity="1"><g transform="translate(208.841128, 120.311654)"><g><path d="M 8.675781 0.414062 C 11 0.414062 13.242188 -0.375 14.902344 -1.992188 C 14.945312 -1.660156 14.988281 -1.328125 15.109375 -0.996094 C 15.277344 -0.332031 16.398438 0 18.515625 0 L 18.890625 0 C 21.128906 0 22.292969 -1.285156 22.167969 -3.613281 C 22.042969 -6.433594 22.042969 -10.046875 22.042969 -15.027344 C 22.042969 -20.589844 18.972656 -23.332031 12.785156 -23.332031 C 6.726562 -23.332031 3.527344 -21.710938 2.574219 -18.472656 C 1.910156 -16.191406 3.613281 -14.863281 5.9375 -14.863281 L 6.351562 -14.863281 C 8.386719 -14.863281 8.550781 -15.984375 9.753906 -17.808594 C 10.253906 -18.558594 11.167969 -18.847656 12.246094 -18.847656 C 14.074219 -18.847656 14.902344 -17.933594 14.902344 -14.902344 L 14.902344 -13.492188 C 5.5625 -13.742188 1.285156 -11.042969 1.285156 -5.851562 C 1.285156 -1.496094 4.566406 0.414062 8.675781 0.414062 Z M 10.875 -4.277344 C 8.925781 -4.277344 7.886719 -5.398438 7.886719 -6.972656 C 7.886719 -9.632812 11.207031 -10.089844 14.988281 -10.171875 L 14.988281 -6.433594 C 14.03125 -5.066406 12.746094 -4.277344 10.875 -4.277344 Z M 10.875 -4.277344 "/></g></g></g><g fill="#ffffff" fill-opacity="1"><g transform="translate(233.002465, 120.311654)"><g><path d="M 36.074219 -3.570312 C 36.035156 -7.304688 35.953125 -10.792969 36.035156 -13.699219 C 36.199219 -20.550781 34 -23.332031 29.640625 -23.332031 C 26.445312 -23.332031 23.996094 -21.960938 22.417969 -19.054688 L 22.292969 -19.054688 C 21.378906 -22.042969 19.429688 -23.332031 16.441406 -23.332031 C 13.242188 -23.332031 10.792969 -21.960938 9.214844 -19.054688 L 9.175781 -19.054688 C 9.214844 -19.84375 9.214844 -20.507812 9.257812 -21.046875 C 9.257812 -22.292969 7.972656 -23 5.6875 -23 C 3.402344 -23 2.160156 -21.753906 2.199219 -19.46875 C 2.242188 -16.8125 2.285156 -14.238281 2.285156 -11.5 C 2.285156 -8.757812 2.242188 -6.1875 2.199219 -3.527344 C 2.160156 -1.246094 3.402344 0 5.6875 0 L 5.976562 0 C 8.261719 0 9.507812 -1.246094 9.464844 -3.527344 C 9.464844 -6.1875 9.421875 -8.757812 9.464844 -11.5 L 9.464844 -14.945312 C 10.171875 -16.441406 11.375 -17.3125 12.953125 -17.351562 C 14.820312 -17.394531 15.777344 -16.480469 15.777344 -13.78125 C 15.777344 -10.917969 15.734375 -7.390625 15.691406 -3.570312 C 15.691406 -1.246094 16.9375 0 19.222656 0 L 19.34375 0 C 21.628906 0 22.875 -1.246094 22.875 -3.570312 C 22.832031 -7.304688 22.75 -10.792969 22.832031 -13.699219 L 22.832031 -15.234375 C 23.539062 -16.5625 24.660156 -17.3125 26.152344 -17.351562 C 28.023438 -17.394531 28.976562 -16.480469 28.976562 -13.78125 C 28.976562 -10.917969 28.933594 -7.390625 28.894531 -3.570312 C 28.894531 -1.246094 30.140625 0 32.421875 0 L 32.546875 0 C 34.832031 0 36.074219 -1.246094 36.074219 -3.570312 Z M 36.074219 -3.570312 "/></g></g></g><g fill="#ffffff" fill-opacity="1"><g transform="translate(271.486238, 120.311654)"><g><path d="M 12.207031 0.414062 C 17.3125 0.414062 20.425781 -1.039062 21.421875 -4.109375 C 22.042969 -5.976562 20.507812 -7.140625 18.347656 -7.140625 C 16.5625 -7.140625 16.398438 -5.976562 14.820312 -4.941406 C 14.238281 -4.609375 13.367188 -4.402344 12.246094 -4.402344 C 10.089844 -4.402344 8.511719 -5.4375 8.34375 -9.714844 L 21.585938 -9.714844 C 21.917969 -9.714844 22.167969 -9.964844 22.210938 -10.378906 C 23 -18.101562 19.925781 -23.332031 12.207031 -23.332031 C 5.023438 -23.332031 1.496094 -19.46875 1.496094 -11.832031 C 1.496094 -3.652344 4.773438 0.414062 12.207031 0.414062 Z M 8.386719 -13.617188 C 8.304688 -16.980469 9.714844 -18.597656 11.875 -18.597656 C 14.28125 -18.597656 15.277344 -16.9375 15.195312 -13.617188 Z M 8.386719 -13.617188 "/></g></g></g><g fill="#ffffff" fill-opacity="1"><g transform="translate(295.481517, 120.311654)"><g><path d="M 11.042969 0.5 C 17.683594 0.5 21.171875 -2.074219 21.171875 -7.183594 C 21.171875 -16.355469 8.636719 -11.457031 8.636719 -16.523438 C 8.636719 -17.808594 9.300781 -18.558594 11.539062 -18.558594 C 12.746094 -18.558594 13.535156 -18.347656 13.992188 -17.894531 C 15.234375 -16.480469 15.441406 -15.441406 17.394531 -15.441406 L 17.558594 -15.441406 C 19.511719 -15.441406 21.007812 -16.730469 20.34375 -18.972656 C 19.429688 -21.878906 16.523438 -23.332031 11.539062 -23.332031 C 5.023438 -23.332031 1.785156 -21.007812 1.785156 -16.273438 C 1.785156 -6.519531 14.28125 -11.625 14.28125 -6.269531 C 14.28125 -5.023438 13.367188 -4.109375 10.753906 -4.109375 C 9.382812 -4.109375 8.59375 -4.316406 8.179688 -4.855469 C 6.972656 -6.433594 6.808594 -7.515625 4.816406 -7.515625 L 4.691406 -7.515625 C 2.738281 -7.515625 1.203125 -6.1875 1.949219 -3.902344 C 2.863281 -0.996094 5.6875 0.5 11.042969 0.5 Z M 11.042969 0.5 "/></g></g></g><g fill="#ffffff" fill-opacity="1"><g transform="translate(380.173209, 162.199949)"><g/></g></g></svg>